<svg width="441" height="217" viewBox="0 0 441 217" fill="none" xmlns="http://www.w3.org/2000/svg">
<path fill-rule="evenodd" clip-rule="evenodd" d="M407.773 212.293C405.673 204.193 405.073 198.793 405.073 184.993V123.793C405.073 120.793 404.173 119.293 402.073 119.293H399.073V212.293H369.073V2.29297H402.373C424.273 2.29297 435.073 11.293 435.073 32.293V74.893C435.073 91.749 434.021 100.45 424.526 104.69C423.945 104.95 423.332 105.192 422.686 105.419C422.615 105.444 422.545 105.469 422.473 105.493V106.093C422.551 106.117 422.627 106.142 422.704 106.167C423.351 106.378 423.964 106.607 424.546 106.854C434.022 110.886 435.073 119.849 435.073 136.693V184.693C435.073 197.497 435.343 201.935 438.186 210.293C438.341 210.747 438.503 211.213 438.673 211.693V212.293H407.773ZM426.887 105.753C428.3 104.983 429.546 104.086 430.636 103.041C432.615 101.143 433.987 98.8433 434.935 96.1431C436.792 90.8566 437.073 83.8366 437.073 74.893V32.293C437.073 21.4695 434.285 13.3206 428.271 7.92883C422.303 2.57878 413.541 0.292969 402.373 0.292969H367.073V214.293H401.073V121.293H402.073C402.362 121.293 402.495 121.344 402.542 121.367C402.577 121.385 402.622 121.412 402.684 121.508C402.853 121.768 403.073 122.418 403.073 123.793V184.993C403.073 198.884 403.679 204.47 405.837 212.795L406.226 214.293H440.673V211.349L440.558 211.024C438.938 206.458 438.084 203.23 437.62 199.52C437.151 195.762 437.073 191.458 437.073 184.693V136.693C437.073 127.749 436.791 120.656 434.937 115.335C433.99 112.618 432.617 110.302 430.629 108.412C429.541 107.377 428.296 106.497 426.887 105.753ZM402.542 31.3675C402.495 31.3441 402.362 31.293 402.073 31.293H401.073V90.293H402.073C402.362 90.293 402.495 90.2419 402.542 90.2185C402.577 90.2013 402.622 90.1739 402.684 90.078C402.853 89.8183 403.073 89.1682 403.073 87.793V33.793C403.073 32.4178 402.853 31.7676 402.684 31.508C402.622 31.4121 402.577 31.3846 402.542 31.3675ZM402.073 92.293C404.173 92.293 405.073 90.793 405.073 87.793V33.793C405.073 30.793 404.173 29.293 402.073 29.293H399.073V92.293H402.073Z" fill="white"/>
<path fill-rule="evenodd" clip-rule="evenodd" d="M365.026 0.292969V31.293H353.026V89.093H363.526V120.093H353.026V183.293H366.526V214.293H319.026V0.292969H365.026ZM351.026 185.293V118.093H361.526V91.093H351.026V29.293H363.026V2.29297H321.026V212.293H364.526V185.293H351.026Z" fill="white"/>
<path fill-rule="evenodd" clip-rule="evenodd" d="M316.722 0.292969V214.293H275.461L262.22 110.669L262.721 117.706L264.254 214.293H231.722V0.292969H272.982L286.223 103.917L285.723 96.8798L284.19 0.292969H316.722ZM292.522 164.293H291.922L271.222 2.29297H233.722V212.293H262.222L260.722 117.793L255.922 50.293H256.522L277.222 212.293H314.722V2.29297H286.222L287.722 96.793L292.522 164.293Z" fill="white"/>
<path fill-rule="evenodd" clip-rule="evenodd" d="M229.417 0.292969V214.293H188.156L174.915 110.669L175.416 117.706L176.949 214.293H144.417V0.292969H185.678L198.919 103.917L198.418 96.8798L196.885 0.292969H229.417ZM205.217 164.293H204.617L183.917 2.29297H146.417V212.293H174.917L173.417 117.793L168.617 50.293H169.217L189.917 212.293H227.417V2.29297H198.917L200.417 96.793L205.217 164.293Z" fill="white"/>
<path fill-rule="evenodd" clip-rule="evenodd" d="M142.347 0.292969V181.093C142.347 192.047 138.735 200.85 132.433 206.91C126.143 212.958 117.362 216.093 107.347 216.093C97.3315 216.093 88.5504 212.958 82.2605 206.91C75.9579 200.85 72.3467 192.047 72.3467 181.093V0.292969H106.347V182.593C106.347 183.968 106.567 184.618 106.736 184.878C106.798 184.974 106.843 185.001 106.878 185.018C106.925 185.042 107.058 185.093 107.347 185.093C107.635 185.093 107.768 185.042 107.816 185.018C107.85 185.001 107.895 184.974 107.957 184.878C108.126 184.618 108.347 183.968 108.347 182.593V0.292969H142.347ZM140.347 2.29297H110.347V182.593C110.347 185.593 109.447 187.093 107.347 187.093C105.247 187.093 104.347 185.593 104.347 182.593V2.29297H74.3467V181.093C74.3467 202.093 88.1467 214.093 107.347 214.093C126.547 214.093 140.347 202.093 140.347 181.093V2.29297Z" fill="white"/>
<path fill-rule="evenodd" clip-rule="evenodd" d="M40.9764 212.293C38.8764 204.193 38.2764 198.793 38.2764 184.993V123.793C38.2764 120.793 37.3764 119.293 35.2764 119.293H32.2764V212.293H2.27637V2.29297H35.5764C57.4764 2.29297 68.2764 11.293 68.2764 32.293V74.893C68.2764 91.749 67.2241 100.45 57.7286 104.69C57.1477 104.95 56.535 105.192 55.8891 105.419C55.8186 105.444 55.7477 105.469 55.6764 105.493V106.093C55.7537 106.117 55.8306 106.142 55.907 106.167C56.5539 106.378 57.1674 106.607 57.7491 106.854C67.2256 110.886 68.2764 119.849 68.2764 136.693V184.693C68.2764 197.497 68.5462 201.935 71.3894 210.293C71.544 210.747 71.7062 211.213 71.8764 211.693V212.293H40.9764ZM60.0901 105.753C61.5028 104.983 62.7492 104.086 63.8388 103.041C65.8178 101.143 67.1903 98.8433 68.1384 96.1431C69.9947 90.8566 70.2764 83.8366 70.2764 74.893V32.293C70.2764 21.4695 67.4879 13.3206 61.474 7.92883C55.5066 2.57878 46.7444 0.292969 35.5764 0.292969H0.276367V214.293H34.2764V121.293H35.2764C35.5647 121.293 35.6981 121.344 35.7455 121.367C35.7802 121.385 35.8247 121.412 35.887 121.508C36.0558 121.768 36.2764 122.418 36.2764 123.793V184.993C36.2764 198.884 36.882 204.47 39.0404 212.795L39.4288 214.293H73.8764V211.349L73.7612 211.024C72.1408 206.458 71.2872 203.23 70.8234 199.52C70.3537 195.762 70.2764 191.458 70.2764 184.693V136.693C70.2764 127.749 69.9945 120.656 68.14 115.335C67.1931 112.618 65.82 110.302 63.8326 108.412C62.7439 107.377 61.4994 106.497 60.0901 105.753ZM35.7455 31.3675C35.6981 31.3441 35.5647 31.293 35.2764 31.293H34.2764V90.293H35.2764C35.5647 90.293 35.6981 90.2419 35.7455 90.2185C35.7802 90.2013 35.8247 90.1739 35.887 90.078C36.0558 89.8183 36.2764 89.1682 36.2764 87.793V33.793C36.2764 32.4178 36.0558 31.7676 35.887 31.508C35.8247 31.4121 35.7802 31.3846 35.7455 31.3675ZM35.2764 92.293C37.3764 92.293 38.2764 90.793 38.2764 87.793V33.793C38.2764 30.793 37.3764 29.293 35.2764 29.293H32.2764V92.293H35.2764Z" fill="white"/>
</svg>
