<svg width="781" height="261" viewBox="0 0 781 261" fill="none" xmlns="http://www.w3.org/2000/svg">
<path fill-rule="evenodd" clip-rule="evenodd" d="M747.851 109.999V109.305L775.984 8.92711H740.557L713.813 119.377L712.771 119.03L716.244 73.1827V8.92711H681.164V252.056H716.244V156.889L721.107 142.301H722.496L742.294 252.056H777.374L747.851 109.999ZM750.745 109.703L780.931 254.951H739.875L721.171 151.261L719.138 157.358V254.951H678.27V6.03271H719.138V73.2922L717.838 90.4531L738.28 6.03271H779.802L750.745 109.703Z" fill="white"/>
<path fill-rule="evenodd" clip-rule="evenodd" d="M672.782 252.056L647.775 8.92711H601.928L577.267 252.056H612.347L615.821 195.095H633.882L637.355 252.056H672.782ZM631.158 197.989L634.632 254.951H675.99L650.387 6.03271H599.312L574.064 254.951H615.071L618.544 197.989H631.158ZM632.145 166.614H617.557L624.156 58.5949H625.546L632.145 166.614ZM629.068 163.719L624.851 94.6895L620.634 163.719H629.068Z" fill="white"/>
<path fill-rule="evenodd" clip-rule="evenodd" d="M525.201 222.534L568.617 37.408V8.92711H492.552V37.408H532.495L533.19 38.45L490.121 223.576V252.056H571.048V223.576H525.896L525.201 222.534ZM528.608 220.681H573.943V254.951H487.227V223.243L529.787 40.3024H489.658V6.03271H571.511V37.7428L528.608 220.681Z" fill="white"/>
<path fill-rule="evenodd" clip-rule="evenodd" d="M439.164 37.8995L439.121 37.8246C438.141 36.1458 436.461 35.0927 433.285 35.0927C430.116 35.0927 428.223 36.1515 427.01 37.9717C425.648 40.0142 424.717 43.8064 424.717 49.912V210.725C424.717 216.532 425.656 220.393 427.132 222.719C428.468 224.824 430.37 225.891 433.285 225.891C436.461 225.891 438.141 224.838 439.121 223.159L439.164 223.084L439.212 223.012C440.567 220.981 441.505 217.088 441.505 210.725V160.594H482.374V205.862C482.374 223.853 478.118 237.713 469.022 246.809C460.038 255.793 448.014 260.161 433.285 260.161C418.553 260.161 406.433 255.793 397.228 246.837L397.214 246.823L397.2 246.809C388.104 237.713 383.849 223.853 383.849 205.862V54.4272C383.849 36.6628 388.107 23.0146 397.229 14.1459C406.434 5.19074 418.553 0.822998 433.285 0.822998C448.007 0.822998 460.026 5.18606 469.008 14.1605C478.12 23.0295 482.374 36.6725 482.374 54.4272V100.043H441.505V49.912C441.505 43.8064 440.574 40.0142 439.212 37.9717L439.164 37.8995ZM466.976 16.2212C458.64 7.88533 447.41 3.71739 433.285 3.71739C419.16 3.71739 407.814 7.88533 399.247 16.2212C390.911 24.3255 386.743 37.0608 386.743 54.4272V205.862C386.743 223.46 390.911 236.427 399.247 244.763C407.814 253.099 419.16 257.266 433.285 257.266C447.41 257.266 458.64 253.099 466.976 244.763C475.312 236.427 479.479 223.46 479.479 205.862V163.488H444.399V210.725C444.399 217.208 443.473 221.839 441.621 224.618C440 227.396 437.221 228.786 433.285 228.786C425.644 228.786 421.823 222.765 421.823 210.725V49.912C421.823 43.6601 422.749 39.1448 424.602 36.3662C426.454 33.5876 429.349 32.1983 433.285 32.1983C437.221 32.1983 440 33.5876 441.621 36.3662C443.473 39.1448 444.399 43.6601 444.399 49.912V97.1485H479.479V54.4272C479.479 37.0608 475.312 24.3255 466.976 16.2212Z" fill="white"/>
<path fill-rule="evenodd" clip-rule="evenodd" d="M372.489 252.056V8.92711H321.779L310.317 179.118L309.275 202.736H307.538L306.149 179.118L293.645 8.92711H242.935V252.056H275.932L268.29 57.9003L269.68 57.553L272.806 82.9079L291.909 252.056H324.905L345.744 57.553L347.481 57.9003L346.092 82.9079L339.492 252.056H372.489ZM341.624 123.179L336.483 254.951H375.383V6.03271H319.073L308.198 167.505L296.335 6.03271H240.041V254.951H278.942L273.39 113.872L289.323 254.951H327.506L341.624 123.179Z" fill="white"/>
<path fill-rule="evenodd" clip-rule="evenodd" d="M225.854 252.056V8.92711H190.774V252.056H225.854ZM228.749 254.951H187.88V6.03271H228.749V254.951Z" fill="white"/>
<path fill-rule="evenodd" clip-rule="evenodd" d="M145.393 8.92711H110.313V252.056H175.611V223.576H145.393V8.92711ZM148.288 220.681V6.03271H107.419V254.951H178.505V220.681H148.288Z" fill="white"/>
<path fill-rule="evenodd" clip-rule="evenodd" d="M69.8176 109.999V109.305L97.9511 8.92711H62.5237L35.7795 119.377L34.7375 119.03L38.2108 73.1827V8.92711H3.13072V252.056H38.2108V156.889L43.0734 142.301H44.4627L64.2604 252.056H99.3404L69.8176 109.999ZM72.7121 109.702L102.898 254.951H61.8413L43.1378 151.261L41.1052 157.358V254.951H0.236328V6.03271H41.1052V73.2922L39.8051 90.453L60.2465 6.03271H101.768L72.7121 109.702Z" fill="white"/>
</svg>
