<svg width="841" height="239" viewBox="0 0 841 239" fill="none" xmlns="http://www.w3.org/2000/svg">
<path fill-rule="evenodd" clip-rule="evenodd" d="M836.53 230.513L813.684 8.4025H771.8L749.272 230.513H781.319L784.492 178.476H800.992L804.165 230.513H836.53ZM798.007 181.649L801.18 233.686H840.046L816.547 5.22949H768.933L745.761 233.686H784.305L787.478 181.649H798.007ZM799.405 152.457H786.079L792.108 53.7766H793.377L799.405 152.457ZM796.033 149.284L792.742 95.4229L789.452 149.284H796.033Z" fill="white"/>
<path fill-rule="evenodd" clip-rule="evenodd" d="M702.248 230.513H741.277V8.4025H708.912L716.21 149.919L717.796 172.765L716.527 173.082L689.239 8.4025H650.211V230.513H682.576L674.961 83.9202L673.374 61.0745H674.643L702.248 230.513ZM679.536 110.84L699.551 233.686H744.45V5.22949H705.571L711.735 124.75L691.93 5.22949H647.038V233.686H685.918L679.536 110.84Z" fill="white"/>
<path fill-rule="evenodd" clip-rule="evenodd" d="M637.054 34.4212V8.4025H577.084V230.513H639.91V204.495H609.132V132.785H635.15V106.766H609.132V34.4212H637.054ZM612.305 37.5942H640.227V5.22949H573.911V233.686H643.083V201.322H612.305V135.958H638.323V103.593H612.305V37.5942Z" fill="white"/>
<path fill-rule="evenodd" clip-rule="evenodd" d="M538.481 8.4025H506.434V230.513H566.086V204.495H538.481V8.4025ZM541.654 201.322V5.22949H503.261V233.686H569.259V201.322H541.654Z" fill="white"/>
<path fill-rule="evenodd" clip-rule="evenodd" d="M498.777 230.513L475.931 8.4025H434.047L411.519 230.513H443.566L446.739 178.476H463.239L466.412 230.513H498.777ZM460.254 181.649L463.427 233.686H502.293L478.794 5.22949H431.18L408.008 233.686H446.552L449.725 181.649H460.254ZM461.653 152.457H448.326L454.355 53.7766H455.624L461.653 152.457ZM458.28 149.284L454.989 95.4231L451.699 149.284H458.28Z" fill="white"/>
<path fill-rule="evenodd" clip-rule="evenodd" d="M360.813 230.513C374.774 230.513 385.668 226.706 393.495 219.09C401.533 211.475 405.553 199.629 405.553 183.553V54.7285C405.553 38.8634 401.533 27.229 393.495 19.8253C385.457 12.2101 374.457 8.4025 360.496 8.4025H320.516V230.513H360.813ZM395.662 17.5074C386.893 9.20812 375.039 5.22949 360.496 5.22949H317.343V233.686H360.813C375.351 233.686 387.122 229.71 395.692 221.38C404.592 212.938 408.726 200.094 408.726 183.553V54.7285C408.726 38.3934 404.589 25.7411 395.662 17.5074ZM370.332 38.2288C372.447 40.7672 373.505 44.8921 373.505 50.6036V187.995C373.505 193.918 372.447 198.149 370.332 200.687C368.217 203.225 364.938 204.495 360.496 204.495H352.563V34.4212H360.496C364.938 34.4212 368.217 35.6904 370.332 38.2288ZM355.736 37.5942H360.496C364.34 37.5942 366.572 38.6734 367.895 40.2601C369.294 41.94 370.332 45.1438 370.332 50.6036V187.995C370.332 193.701 369.282 196.991 367.895 198.656C366.572 200.242 364.34 201.322 360.496 201.322H355.736V37.5942Z" fill="white"/>
<path fill-rule="evenodd" clip-rule="evenodd" d="M270.432 35.2832L270.396 35.2294C269.404 33.7416 267.858 32.8347 265.104 32.8347C262.367 32.8347 260.823 33.7299 259.831 35.2004C258.886 36.7099 258.123 40.0107 258.123 45.844V192.754C258.123 198.043 258.93 201.483 260.134 203.504C261.185 205.266 262.592 206.081 264.786 206.081C267.69 206.081 269.569 205.015 270.903 202.888C272.392 200.513 273.353 196.545 273.353 190.533V144.842H260.027V112.477H310.795V233.686H276.134L275.368 224.039C274.072 226.345 272.472 228.496 270.57 230.485L270.545 230.511L270.52 230.536C265.177 235.879 258.187 238.446 249.873 238.446C239.741 238.446 231.952 233.92 226.894 225.113C221.987 216.57 219.729 204.166 219.729 188.312V49.969C219.729 33.6681 223.636 21.0333 232.113 12.7916C240.628 4.50668 251.729 0.469971 265.104 0.469971C278.856 0.469971 290.093 4.48179 298.427 12.8068C306.893 21.0487 310.795 33.678 310.795 49.969V92.17H272.401V45.844C272.401 40.0083 271.526 36.7871 270.47 35.3356L270.432 35.2832ZM296.199 15.0658C288.584 7.4506 278.219 3.64298 265.104 3.64298C252.412 3.64298 242.152 7.4506 234.325 15.0658C226.71 22.4695 222.903 34.1039 222.903 49.969V188.312C222.903 219.619 231.893 235.273 249.873 235.273C257.488 235.273 263.623 232.946 268.277 228.292C271.327 225.103 273.514 221.459 274.838 217.361C275.524 215.237 275.978 212.992 276.2 210.625C276.203 210.591 276.206 210.557 276.209 210.523H277.478L279.065 230.513H307.622V115.65H263.2V141.669H276.526V190.533C276.526 203.014 272.613 209.254 264.786 209.254C258.229 209.254 254.95 203.754 254.95 192.754V45.844C254.95 39.9211 255.69 35.7962 257.171 33.4693C258.863 30.9309 261.507 29.6617 265.104 29.6617C268.7 29.6617 271.344 30.9309 273.036 33.4693C274.728 35.7962 275.574 39.9211 275.574 45.844V88.997H307.622V49.969C307.622 34.1039 303.814 22.4695 296.199 15.0658Z" fill="white"/>
<path fill-rule="evenodd" clip-rule="evenodd" d="M217.111 230.513L194.265 8.4025H152.381L129.853 230.513H161.9L165.073 178.476H181.573L184.746 230.513H217.111ZM178.588 181.649L181.761 233.686H220.627L197.128 5.22949H149.514L126.342 233.686H164.886L168.059 181.649H178.588ZM179.986 152.457H166.66L172.689 53.7766H173.958L179.986 152.457ZM176.614 149.284L173.323 95.4232L170.033 149.284H176.614Z" fill="white"/>
<path fill-rule="evenodd" clip-rule="evenodd" d="M121.878 230.513V8.4025H75.5519L65.081 163.88L64.1291 185.457H62.5427L61.2734 163.88L49.8505 8.4025H3.52457V230.513H33.6682L26.6876 53.142L27.9568 52.8247L30.8125 75.9877L48.264 230.513H78.4076L97.4457 52.8247L99.0322 53.142L97.763 75.9877L91.7343 230.513H121.878ZM92.5446 128.353L88.4351 233.686H125.051V5.22949H72.5854L63.1224 145.742L52.799 5.22949H0.351562V233.686H36.9685L32.4432 118.701L45.4292 233.686H81.2588L92.5446 128.353Z" fill="white"/>
</svg>
