<svg width="700" height="234" viewBox="0 0 700 234" fill="none" xmlns="http://www.w3.org/2000/svg">
<path d="M682.115 115.543C684.479 114.557 686.429 113.327 688.024 111.798C689.99 109.912 691.371 107.614 692.336 104.865C694.247 99.4237 694.558 92.112 694.558 82.5142V36.9511C694.558 25.5591 691.626 17.213 685.522 11.7405C679.442 6.2889 670.405 3.8645 658.584 3.8645H622.968H621.968V4.8645V229.471V230.471H622.968H655.054H656.054V229.471V131.002H658.263C659.108 131.002 659.565 131.279 659.871 131.751C660.233 132.308 660.472 133.273 660.472 134.815V200.272C660.472 215.078 661.116 220.946 663.392 229.722L663.586 230.471H664.36H697.409H698.409V229.471V228.829V228.657L698.351 228.495C696.601 223.563 695.662 220.027 695.152 215.951C694.64 211.85 694.558 207.178 694.558 199.951V148.613C694.558 139.015 694.247 131.624 692.337 126.144C691.372 123.376 689.991 121.064 688.021 119.19C686.426 117.674 684.477 116.474 682.115 115.543ZM658.263 34.7425C659.108 34.7425 659.565 35.0196 659.871 35.4907C660.233 36.0477 660.472 37.0135 660.472 38.5555V96.3114C660.472 97.8533 660.233 98.8192 659.871 99.3762C659.565 99.8473 659.108 100.124 658.263 100.124H656.054V34.7425H658.263Z" stroke="white" stroke-width="2"/>
<path d="M603.109 4.78617L603.036 3.8645H602.112H557.191H556.266L556.194 4.78617L538.546 229.393L538.461 230.471H539.543H571.63H572.594L572.629 229.507L574.519 176.886H581.574L583.465 229.507L583.5 230.471H584.464H619.76H620.841L620.756 229.393L603.109 4.78617ZM578.331 79.0094L578.331 79.0176L580.543 146.008H575.551L577.763 79.0176L577.763 79.0094L578.047 67.5637L578.331 79.0094Z" stroke="white" stroke-width="2"/>
<path d="M492.303 3.8645H491.303V4.8645V229.471V230.471H492.303H537.866H538.866V229.471V200.593V199.593H537.866H525.389V4.8645V3.8645H524.389H492.303Z" stroke="white" stroke-width="2"/>
<path d="M441.854 3.8645H440.854V4.8645V229.471V230.471H441.854H487.418H488.418V229.471V200.593V199.593H487.418H474.941V4.8645V3.8645H473.941H441.854Z" stroke="white" stroke-width="2"/>
<path d="M436.386 4.8645V3.8645H435.386H390.465H389.465V4.8645V229.471V230.471H390.465H436.99H437.99V229.471V200.593V199.593H436.99H423.551V129.719H433.782H434.782V128.719V99.8409V98.8409H433.782H423.551V34.7425H435.386H436.386V33.7425V4.8645Z" stroke="white" stroke-width="2"/>
<path d="M351.887 133.495H350.887V134.495V197.705C350.887 199.247 350.648 200.213 350.286 200.77C349.98 201.241 349.523 201.518 348.678 201.518C347.833 201.518 347.376 201.241 347.07 200.77C346.708 200.213 346.469 199.247 346.469 197.705V36.6304C346.469 35.0885 346.708 34.1227 347.07 33.5657C347.376 33.0945 347.833 32.8174 348.678 32.8174C349.523 32.8174 349.98 33.0945 350.286 33.5657C350.648 34.1227 350.887 35.0885 350.887 36.6304V89.8942V90.8942H351.887H383.973H384.973V89.8942V38.2347C384.973 26.7775 381.203 17.6789 374.762 11.4458C368.327 5.21818 359.318 1.93945 348.999 1.93945C338.675 1.93945 329.512 5.30112 322.922 11.5596C316.324 17.8251 312.383 26.9218 312.383 38.2347V196.101C312.383 207.558 316.153 216.658 322.637 222.892C329.113 229.12 338.203 232.396 348.678 232.396C359.153 232.396 368.243 229.12 374.72 222.892C381.203 216.658 384.973 207.558 384.973 196.101V134.495V133.495H383.973H351.887Z" stroke="white" stroke-width="2"/>
<path d="M307.914 4.8645V3.8645H306.914H261.993H260.993V4.8645V229.471V230.471H261.993H308.519H309.519V229.471V200.593V199.593H308.519H295.08V129.719H305.31H306.31V128.719V99.8409V98.8409H305.31H295.08V34.7425H306.914H307.914V33.7425V4.8645Z" stroke="white" stroke-width="2"/>
<path d="M256.251 4.8645V3.8645H255.251H224.769H223.753L223.769 4.88037L225.373 105.953L225.374 105.981L225.376 106.008L228.787 153.975L209.717 4.73775L209.606 3.8645H208.725H168.617H167.617V4.8645V229.471V230.471H168.617H199.099H200.115L200.099 229.455L198.495 128.382L198.495 128.355L198.493 128.327L195.082 80.3605L214.151 229.598L214.262 230.471H215.143H255.251H256.251V229.471V4.8645Z" stroke="white" stroke-width="2"/>
<path d="M163.163 4.8645V3.8645H162.163H130.076H129.076V4.8645V229.471V230.471H130.076H162.163H163.163V229.471V4.8645Z" stroke="white" stroke-width="2"/>
<path d="M127.971 4.91729L128.027 3.8645H126.972H91.677H90.677V4.8645V155.347V155.351L90.6278 161.292L90.4305 155.318L90.4298 155.304L83.3707 4.81765L83.326 3.8645H82.3718H48.36H47.4058L47.3611 4.81765L40.3725 153.803L40.0549 4.86237L40.0528 3.8645H39.0549H2.15527H1.09348L1.15707 4.92439L14.6335 229.531L14.6899 230.471H15.6317H58.9486H59.9137L59.948 229.506L65.3659 76.8475L70.7839 229.506L70.8181 230.471H71.7833H115.1H116.049L116.099 229.524L127.971 4.91729Z" stroke="white" stroke-width="2"/>
</svg>
