<svg width="363" height="215" viewBox="0 0 363 215" fill="none" xmlns="http://www.w3.org/2000/svg">
<path fill-rule="evenodd" clip-rule="evenodd" d="M362.803 0.356201V31.3562H347.803V214.356H313.803V31.3562H298.803V0.356201H362.803ZM315.803 29.3562V212.356H345.803V29.3562H360.803V2.3562H300.803V29.3562H315.803Z" fill="white"/>
<path fill-rule="evenodd" clip-rule="evenodd" d="M298.268 0.356201V214.356H264.268V0.356201H298.268ZM296.268 2.3562H266.268V212.356H296.268V2.3562Z" fill="white"/>
<path fill-rule="evenodd" clip-rule="evenodd" d="M263.686 0.356201V31.3562H251.686V92.1562H262.186V123.156H251.686V214.356H217.686V0.356201H263.686ZM249.686 121.156H260.186V94.1562H249.686V29.3562H261.686V2.3562H219.686V212.356H249.686V121.156Z" fill="white"/>
<path fill-rule="evenodd" clip-rule="evenodd" d="M218.047 0.356201L205.185 104.479V104.831L218.952 214.356H184.249L179.458 158.275L174.103 214.356H139.418L139.669 212.356H140.138V208.626L153.185 104.831V104.479L140.323 0.356201H175.026L179.185 50.5402L183.344 0.356201H218.047ZM179.485 86.6562H178.885L177.685 56.6562L173.185 2.3562H142.585L155.185 104.356V104.956L141.685 212.356H172.285L177.985 152.656L179.185 122.656H179.785L180.985 152.656L186.085 212.356H216.685L203.185 104.956V104.356L215.785 2.3562H185.185L180.685 56.6562L179.485 86.6562Z" fill="white"/>
<path fill-rule="evenodd" clip-rule="evenodd" d="M140.639 0.356201V31.3562H128.639V89.1562H139.139V120.156H128.639V183.356H142.139V208.751L141.686 212.356H142.139V214.356H94.6387V0.356201H140.639ZM126.639 185.356V118.156H137.139V91.1562H126.639V29.3562H138.639V2.3562H96.6387V212.356H140.139V185.356H126.639Z" fill="white"/>
<path fill-rule="evenodd" clip-rule="evenodd" d="M47.4707 0.356201H81.4707V183.356H94.0707V214.356H47.4707V0.356201ZM79.4707 185.356V2.3562H49.4707V212.356H92.0707V185.356H79.4707Z" fill="white"/>
<path fill-rule="evenodd" clip-rule="evenodd" d="M46.8887 0.356201V31.3562H34.8887V92.1562H45.3887V123.156H34.8887V214.356H0.888672V0.356201H46.8887ZM32.8887 121.156H43.3887V94.1562H32.8887V29.3562H44.8887V2.3562H2.88867V212.356H32.8887V121.156Z" fill="white"/>
</svg>
