<svg width="476" height="215" viewBox="0 0 476 215" fill="none" xmlns="http://www.w3.org/2000/svg">
<path fill-rule="evenodd" clip-rule="evenodd" d="M475.354 0.91333V214.913H434.093L420.852 111.289L421.352 118.326L422.886 214.913H390.354V0.91333H431.614L444.855 104.537L444.355 97.5002L442.822 0.91333H475.354ZM451.154 164.913H450.554L429.854 2.91333H392.354V212.913H420.854L419.354 118.413L414.554 50.9133H415.154L435.854 212.913H473.354V2.91333H444.854L446.354 97.4133L451.154 164.913Z" fill="white"/>
<path fill-rule="evenodd" clip-rule="evenodd" d="M388.318 0.91333V214.913H354.318V0.91333H388.318ZM386.318 2.91333H356.318V212.913H386.318V2.91333Z" fill="white"/>
<path fill-rule="evenodd" clip-rule="evenodd" d="M355.525 0.91333L344.213 214.913H299.886L295.816 100.243L291.747 214.913H247.433L234.593 0.91333H273.212L273.421 98.7078L278.008 0.91333H313.625L318.416 103.062V0.91333H355.525ZM318.316 143.613L311.716 2.91333H279.916L273.316 143.613L272.116 179.913H271.516V143.613L271.216 2.91333H236.716L249.316 212.913H289.816L294.916 69.2133L295.516 36.2242V36.2133H296.116V36.2242L296.716 69.2133L301.816 212.913H342.316L353.416 2.91333H320.416V143.613L320.116 179.894V179.913H319.516V179.908L318.316 143.613Z" fill="white"/>
<path fill-rule="evenodd" clip-rule="evenodd" d="M235.412 0.91333V214.913H194.151L180.911 111.289L181.411 118.326L182.944 214.913H150.412V0.91333H191.673L204.914 104.537L204.413 97.5002L202.88 0.91333H235.412ZM211.212 164.913H210.612L189.912 2.91333H152.412V212.913H180.912L179.412 118.413L174.612 50.9133H175.212L195.912 212.913H233.412V2.91333H204.912L206.412 97.4133L211.212 164.913Z" fill="white"/>
<path fill-rule="evenodd" clip-rule="evenodd" d="M148.377 0.91333V214.913H114.377V0.91333H148.377ZM146.377 2.91333H116.377V212.913H146.377V2.91333Z" fill="white"/>
<path fill-rule="evenodd" clip-rule="evenodd" d="M112.119 0.91333V214.913H79.5923L81.2177 93.0119L71.4655 214.913H41.0728L30.9606 88.5118L32.646 214.913H0.119141V0.91333H52.9599L56.254 110.441L59.2735 0.91333H112.119ZM54.6191 122.613L51.0191 2.91333H2.11914V212.913H30.6191L28.8191 77.9133L29.1191 41.9133H29.7191L32.1191 77.9133L42.9191 212.913H69.6191L80.4192 77.9133L82.5191 41.9133H83.1191L83.4191 77.9133L81.6191 212.913H110.119V2.91333H61.2191L57.9191 122.613L56.7191 155.913H56.1191L54.6191 122.613Z" fill="white"/>
</svg>
