<svg width="1199" height="527" viewBox="0 0 1199 527" fill="none" xmlns="http://www.w3.org/2000/svg">
<g opacity="0.7">
<path fill-rule="evenodd" clip-rule="evenodd" d="M1198.79 4.38037V83.4642H1162.85V522.02H1076.57V83.4642H1040.63V4.38037H1198.79ZM1083.76 76.2748V514.83H1155.66V76.2748H1191.61V11.5698H1047.82V76.2748H1083.76Z" fill="white"/>
<path fill-rule="evenodd" clip-rule="evenodd" d="M957.78 294.834H1044.05V440.06C1044.05 466.856 1035.21 488.613 1019.56 503.657C1003.96 518.658 982.279 526.334 957.78 526.334C933.281 526.334 911.601 518.658 896 503.657C880.354 488.613 871.507 466.856 871.507 440.06V86.3402C871.507 59.7891 880.789 38.0565 896.662 22.9824C912.481 7.95939 934.296 0.0668945 958.499 0.0668945C982.667 0.0668945 1004.17 7.76004 1019.67 22.7596C1035.21 37.7993 1044.05 59.5455 1044.05 86.3402V209.28H957.78V294.834ZM957.78 71.9612C962.813 71.9612 964.97 75.556 964.97 82.7454V202.09H1036.86V86.3402C1036.86 36.0141 1003.79 7.25633 958.499 7.25633C913.206 7.25633 878.696 36.733 878.696 86.3402V440.06C878.696 490.387 911.768 519.144 957.78 519.144C1003.79 519.144 1036.86 490.387 1036.86 440.06V302.023H964.97V443.655C964.97 450.845 962.813 454.439 957.78 454.439C952.747 454.439 950.591 450.845 950.591 443.655V82.7454C950.591 75.556 952.747 71.9612 957.78 71.9612Z" fill="white"/>
<path fill-rule="evenodd" clip-rule="evenodd" d="M838.611 4.38037L879.283 522.02H785.487L781.173 401.956H774.914L770.601 522.02H683.994L724.666 4.38037H838.611ZM767.979 394.767H788.109L792.423 514.83H871.507L831.965 11.5698H731.313L691.771 514.83H763.665L767.979 394.767ZM770.136 330.062H785.952L780.924 177.789L780.92 177.646L778.763 90.6536H777.325L775.168 177.646L775.163 177.789L770.136 330.062ZM778.044 308.407L777.566 322.872H778.522L778.044 308.407Z" fill="white"/>
<path fill-rule="evenodd" clip-rule="evenodd" d="M709.436 4.38037V83.4642H673.489V522.02H587.216V83.4642H551.269V4.38037H709.436ZM594.405 76.2748V514.83H666.3V76.2748H702.247V11.5698H558.458V76.2748H594.405Z" fill="white"/>
<path fill-rule="evenodd" clip-rule="evenodd" d="M554.132 4.38037V522.02H450.746L425.267 322.623L428.432 522.02H345.639V4.38037H449.025L474.504 203.778L471.339 4.38037H554.132ZM493.741 399.799H492.303L442.696 11.5698H352.828V514.83H421.128L417.533 288.363L406.03 126.601H407.468L457.075 514.83H546.943V11.5698H478.643L482.238 238.037L493.741 399.799Z" fill="white"/>
<path fill-rule="evenodd" clip-rule="evenodd" d="M345.47 86.3402V440.06C345.47 466.856 336.623 488.613 320.977 503.657C305.376 518.658 283.696 526.334 259.197 526.334C234.698 526.334 213.018 518.658 197.417 503.657C181.771 488.613 172.924 466.856 172.924 440.06V86.3402C172.924 59.7891 182.206 38.0565 198.079 22.9824C213.898 7.95939 235.713 0.0668945 259.916 0.0668945C284.083 0.0668945 305.584 7.76004 321.083 22.7596C336.624 37.7993 345.47 59.5455 345.47 86.3402ZM338.281 440.06V86.3402C338.281 36.0141 305.21 7.25633 259.916 7.25633C214.623 7.25633 180.113 36.733 180.113 86.3402V440.06C180.113 490.387 213.185 519.144 259.197 519.144C305.21 519.144 338.281 490.387 338.281 440.06ZM259.197 71.9612C264.23 71.9612 266.387 75.556 266.387 82.7454V443.655C266.387 450.845 264.23 454.439 259.197 454.439C254.164 454.439 252.008 450.845 252.008 443.655V82.7454C252.008 75.556 254.164 71.9612 259.197 71.9612Z" fill="white"/>
<path fill-rule="evenodd" clip-rule="evenodd" d="M86.4822 294.834H172.755V440.06C172.755 466.856 163.908 488.613 148.262 503.657C132.661 518.658 110.981 526.334 86.4822 526.334C61.9835 526.334 40.3034 518.658 24.7026 503.657C9.05655 488.613 0.208984 466.856 0.208984 440.06V86.3402C0.208984 59.7891 9.49119 38.0565 25.3639 22.9824C41.1828 7.95939 62.9979 0.0668945 87.2012 0.0668945C111.369 0.0668945 132.869 7.76004 148.368 22.7596C163.909 37.7993 172.755 59.5455 172.755 86.3402V209.28H86.4822V294.834ZM86.4822 71.9612C91.5149 71.9612 93.6717 75.556 93.6717 82.7454V202.09H165.566V86.3402C165.566 36.0141 132.495 7.25633 87.2012 7.25633C41.9077 7.25633 7.39842 36.733 7.39842 86.3402V440.06C7.39842 490.387 40.4698 519.144 86.4822 519.144C132.495 519.144 165.566 490.387 165.566 440.06V302.023H93.6717V443.655C93.6717 450.845 91.5149 454.439 86.4822 454.439C81.4496 454.439 79.2928 450.845 79.2928 443.655V82.7454C79.2928 75.556 81.4496 71.9612 86.4822 71.9612Z" fill="white"/>
</g>
</svg>
