<?xml version="1.0" encoding="UTF-8" standalone="no"?>
<!DOCTYPE svg PUBLIC "-//W3C//DTD SVG 1.1//EN" "http://www.w3.org/Graphics/SVG/1.1/DTD/svg11.dtd">
<svg width="100%" height="100%" viewBox="0 0 307 265" version="1.1" xmlns="http://www.w3.org/2000/svg" xmlns:xlink="http://www.w3.org/1999/xlink" xml:space="preserve" xmlns:serif="http://www.serif.com/" style="fill-rule:evenodd;clip-rule:evenodd;stroke-linejoin:round;stroke-miterlimit:2;">
    <g transform="matrix(1,0,0,1,-3171.1,-517.655)">
        <g transform="matrix(19.3371,0,0,15.0584,-68576.1,-2399.83)">
            <g transform="matrix(0.051714,0,0,0.066408,3546.34,159.368)">
                <path d="M3342.93,657.242L3342.93,782.086L3307.51,747.131L3308.71,657.242L3301.92,657.242L3291.93,782.086L3291.3,782.086L3255.49,746.747L3248.33,657.242L3241.16,657.242L3242.82,782.086L3206.94,746.671L3206.94,657.242L3171.1,657.242L3171.1,623.008L3206.94,623.008L3206.94,517.655L3233.66,517.655L3269.55,553.07L3271.67,623.008L3278.45,623.008L3281.36,517.655L3307.04,517.655L3342.93,553.07L3342.93,623.008L3363.43,623.008L3363.43,517.655L3400.71,553.07L3401.19,623.008L3402.16,623.008L3415.94,517.655L3448.65,553.07L3436.41,623.008L3477.85,623.008L3477.85,657.242L3436.35,657.242L3454.85,782.086L3415.93,746.671L3411.27,741.45L3401.96,660.448L3401.2,660.448L3401.2,782.086L3363.43,746.671L3363.43,657.242L3342.93,657.242ZM3272.71,657.242L3277.51,657.242L3277.2,668.381L3275.69,710.312L3274.93,710.312L3273.05,668.381L3272.71,657.242ZM3241.69,566.764L3245.59,623.008L3240.7,623.008L3240.94,566.764L3241.69,566.764ZM3308.18,566.764L3304.66,623.008L3309.16,623.008L3308.93,566.764L3308.18,566.764Z"/>
            </g>
        </g>
    </g>
</svg>
