<?xml version="1.0" encoding="UTF-8" standalone="no"?>
<!DOCTYPE svg PUBLIC "-//W3C//DTD SVG 1.1//EN" "http://www.w3.org/Graphics/SVG/1.1/DTD/svg11.dtd">
<svg width="100%" height="100%" viewBox="0 0 200 200" version="1.1" xmlns="http://www.w3.org/2000/svg" xmlns:xlink="http://www.w3.org/1999/xlink" xml:space="preserve" xmlns:serif="http://www.serif.com/" style="fill-rule:evenodd;clip-rule:evenodd;stroke-linejoin:round;stroke-miterlimit:2;">
    <g id="Layer1">
        <path d="M100,0C155.192,0 200,44.808 200,100C200,155.192 155.192,200 100,200C44.808,200 0,155.192 0,100C0,44.808 44.808,0 100,0ZM162.587,164.421L136.491,164.044L137.133,119.596C137.309,107.41 132.776,100.533 123.131,100.394C112.638,100.242 107.053,107.25 106.881,119.16L106.24,163.607L81.09,163.244L82.313,78.572L107.462,78.935L107.298,90.341C107.298,90.341 115.061,76.458 133.029,76.717C150.989,76.976 163.688,88.129 163.361,110.812L162.587,164.421ZM38.101,162.624L64.326,163.002L65.548,78.33L39.324,77.952L38.101,162.624ZM52.47,67.052C43.903,66.928 37.063,59.832 37.187,51.204C37.312,42.575 44.354,35.68 52.921,35.803C61.487,35.927 68.324,43.023 68.199,51.651C68.075,60.28 61.036,67.176 52.47,67.052Z"/>
    </g>
</svg>
