<?xml version="1.0" encoding="UTF-8" standalone="no"?>
<!DOCTYPE svg PUBLIC "-//W3C//DTD SVG 1.1//EN" "http://www.w3.org/Graphics/SVG/1.1/DTD/svg11.dtd">
<svg width="100%" height="100%" viewBox="0 0 200 200" version="1.1" xmlns="http://www.w3.org/2000/svg" xmlns:xlink="http://www.w3.org/1999/xlink" xml:space="preserve" xmlns:serif="http://www.serif.com/" style="fill-rule:evenodd;clip-rule:evenodd;stroke-linejoin:round;stroke-miterlimit:2;">
    <g id="Layer36">
        <path d="M100,0C155.192,0 200,44.808 200,100C200,155.192 155.192,200 100,200C44.808,200 0,155.192 0,100C0,44.808 44.808,0 100,0ZM27.648,105.674C27.648,127.92 42.253,138.222 58.348,138.222L66.991,138.222C81.297,138.222 93.666,129.562 95.008,110.899L81.148,110.899C79.956,119.857 75.038,125.382 62.669,125.382C46.426,125.382 41.061,116.722 41.061,103.285L41.061,96.715C41.061,83.278 46.426,74.618 62.669,74.618C73.995,74.618 79.062,79.396 80.701,87.309L94.71,87.309C92.772,69.841 80.701,61.778 66.991,61.778L58.348,61.778C42.253,61.778 27.648,72.08 27.648,94.326L27.648,105.674ZM157.449,64.167L138.821,122.396L133.754,122.396L115.126,64.167L100.224,64.167L125.558,135.833L147.017,135.833L172.352,64.167L157.449,64.167Z"/>
    </g>
</svg>
